M48
; DRILL file {KiCad (6.0.1)} date Mon Jul 18 11:17:23 2022
; FORMAT={-:-/ absolute / inch / decimal}
; #@! TF.CreationDate,2022-07-18T11:17:23+08:00
; #@! TF.GenerationSoftware,Kicad,Pcbnew,(6.0.1)
; #@! TF.FileFunction,Plated,1,2,PTH
FMAT,2
INCH
; #@! TA.AperFunction,Plated,PTH,ViaDrill
T1C0.0118
; #@! TA.AperFunction,Plated,PTH,ComponentDrill
T2C0.0197
; #@! TA.AperFunction,Plated,PTH,ComponentDrill
T3C0.1260
%
G90
G05
T1
X6.9978Y-3.228
X6.9978Y-3.268
X6.9978Y-3.316
X6.9978Y-3.366
X7.0438Y-3.228
X7.0438Y-3.266
X7.0458Y-3.316
X7.0458Y-3.368
X7.0838Y-3.23
X7.0858Y-3.266
X7.0858Y-3.318
X7.0878Y-3.37
X7.1278Y-3.23
X7.1278Y-3.268
X7.1278Y-3.316
X7.1298Y-3.37
X7.1799Y-3.2322
X7.2398Y-3.428
X7.287Y-3.5426
X7.3452Y-3.5421
X7.3558Y-3.2391
X7.3559Y-3.147
X7.3678Y-3.496
X7.372Y-3.6336
X7.3918Y-3.41
X7.4298Y-3.518
X7.4338Y-3.628
X7.4358Y-3.174
X7.5019Y-3.4202
X7.52Y-3.252
X7.52Y-3.306
X7.52Y-3.348
X7.556Y-3.238
X7.556Y-3.276
X7.558Y-3.318
X7.558Y-3.354
X7.606Y-3.206
X7.606Y-3.258
X7.606Y-3.31
X7.606Y-3.358
X7.606Y-3.406
X7.66Y-3.206
X7.66Y-3.258
X7.66Y-3.31
X7.66Y-3.358
X7.66Y-3.406
X7.718Y-3.206
X7.718Y-3.258
X7.718Y-3.31
X7.718Y-3.358
X7.718Y-3.406
X7.774Y-3.206
X7.774Y-3.258
X7.774Y-3.31
X7.774Y-3.358
X7.774Y-3.406
T2
X6.9735Y-3.596
X7.0012Y-3.5292
X7.0012Y-3.6628
X7.068Y-3.5015
X7.068Y-3.6905
X7.1348Y-3.5292
X7.1348Y-3.6628
X7.1625Y-3.596
X7.5798Y-3.596
X7.6075Y-3.5292
X7.6075Y-3.6628
X7.6743Y-3.5015
X7.6743Y-3.6905
X7.7411Y-3.5292
X7.7411Y-3.6628
X7.7688Y-3.596
T3
X7.068Y-3.596
X7.6743Y-3.596
T0
M30
