%TF.GenerationSoftware,KiCad,Pcbnew,(6.0.1)*%
%TF.CreationDate,2022-07-20T10:33:09+08:00*%
%TF.ProjectId,HighSideSwitch,48696768-5369-4646-9553-77697463682e,rev?*%
%TF.SameCoordinates,Original*%
%TF.FileFunction,Legend,Bot*%
%TF.FilePolarity,Positive*%
%FSLAX46Y46*%
G04 Gerber Fmt 4.6, Leading zero omitted, Abs format (unit mm)*
G04 Created by KiCad (PCBNEW (6.0.1)) date 2022-07-20 10:33:09*
%MOMM*%
%LPD*%
G01*
G04 APERTURE LIST*
%ADD10C,0.150000*%
%ADD11C,0.200000*%
%ADD12C,0.050000*%
G04 APERTURE END LIST*
D10*
%TO.C,C4*%
X189715942Y-86636133D02*
X189763561Y-86588514D01*
X189811180Y-86445657D01*
X189811180Y-86350419D01*
X189763561Y-86207561D01*
X189668323Y-86112323D01*
X189573085Y-86064704D01*
X189382609Y-86017085D01*
X189239752Y-86017085D01*
X189049276Y-86064704D01*
X188954038Y-86112323D01*
X188858800Y-86207561D01*
X188811180Y-86350419D01*
X188811180Y-86445657D01*
X188858800Y-86588514D01*
X188906419Y-86636133D01*
X189144514Y-87493276D02*
X189811180Y-87493276D01*
X188763561Y-87255180D02*
X189477847Y-87017085D01*
X189477847Y-87636133D01*
%TO.C,U1*%
X186200704Y-89625180D02*
X186200704Y-90434704D01*
X186153085Y-90529942D01*
X186105466Y-90577561D01*
X186010228Y-90625180D01*
X185819752Y-90625180D01*
X185724514Y-90577561D01*
X185676895Y-90529942D01*
X185629276Y-90434704D01*
X185629276Y-89625180D01*
X184629276Y-90625180D02*
X185200704Y-90625180D01*
X184914990Y-90625180D02*
X184914990Y-89625180D01*
X185010228Y-89768038D01*
X185105466Y-89863276D01*
X185200704Y-89910895D01*
%TO.C,R2*%
X193821180Y-87156133D02*
X193344990Y-86822800D01*
X193821180Y-86584704D02*
X192821180Y-86584704D01*
X192821180Y-86965657D01*
X192868800Y-87060895D01*
X192916419Y-87108514D01*
X193011657Y-87156133D01*
X193154514Y-87156133D01*
X193249752Y-87108514D01*
X193297371Y-87060895D01*
X193344990Y-86965657D01*
X193344990Y-86584704D01*
X192916419Y-87537085D02*
X192868800Y-87584704D01*
X192821180Y-87679942D01*
X192821180Y-87918038D01*
X192868800Y-88013276D01*
X192916419Y-88060895D01*
X193011657Y-88108514D01*
X193106895Y-88108514D01*
X193249752Y-88060895D01*
X193821180Y-87489466D01*
X193821180Y-88108514D01*
%TO.C,D1*%
X197526895Y-80855180D02*
X197526895Y-79855180D01*
X197288800Y-79855180D01*
X197145942Y-79902800D01*
X197050704Y-79998038D01*
X197003085Y-80093276D01*
X196955466Y-80283752D01*
X196955466Y-80426609D01*
X197003085Y-80617085D01*
X197050704Y-80712323D01*
X197145942Y-80807561D01*
X197288800Y-80855180D01*
X197526895Y-80855180D01*
X196003085Y-80855180D02*
X196574514Y-80855180D01*
X196288800Y-80855180D02*
X196288800Y-79855180D01*
X196384038Y-79998038D01*
X196479276Y-80093276D01*
X196574514Y-80140895D01*
%TO.C,J1*%
X182802133Y-79925180D02*
X182802133Y-80639466D01*
X182849752Y-80782323D01*
X182944990Y-80877561D01*
X183087847Y-80925180D01*
X183183085Y-80925180D01*
X181802133Y-80925180D02*
X182373561Y-80925180D01*
X182087847Y-80925180D02*
X182087847Y-79925180D01*
X182183085Y-80068038D01*
X182278323Y-80163276D01*
X182373561Y-80210895D01*
%TO.C,Q3*%
X184134038Y-85530419D02*
X184229276Y-85482800D01*
X184324514Y-85387561D01*
X184467371Y-85244704D01*
X184562609Y-85197085D01*
X184657847Y-85197085D01*
X184610228Y-85435180D02*
X184705466Y-85387561D01*
X184800704Y-85292323D01*
X184848323Y-85101847D01*
X184848323Y-84768514D01*
X184800704Y-84578038D01*
X184705466Y-84482800D01*
X184610228Y-84435180D01*
X184419752Y-84435180D01*
X184324514Y-84482800D01*
X184229276Y-84578038D01*
X184181657Y-84768514D01*
X184181657Y-85101847D01*
X184229276Y-85292323D01*
X184324514Y-85387561D01*
X184419752Y-85435180D01*
X184610228Y-85435180D01*
X183848323Y-84435180D02*
X183229276Y-84435180D01*
X183562609Y-84816133D01*
X183419752Y-84816133D01*
X183324514Y-84863752D01*
X183276895Y-84911371D01*
X183229276Y-85006609D01*
X183229276Y-85244704D01*
X183276895Y-85339942D01*
X183324514Y-85387561D01*
X183419752Y-85435180D01*
X183705466Y-85435180D01*
X183800704Y-85387561D01*
X183848323Y-85339942D01*
%TO.C,C3*%
X191085466Y-94019942D02*
X191133085Y-94067561D01*
X191275942Y-94115180D01*
X191371180Y-94115180D01*
X191514038Y-94067561D01*
X191609276Y-93972323D01*
X191656895Y-93877085D01*
X191704514Y-93686609D01*
X191704514Y-93543752D01*
X191656895Y-93353276D01*
X191609276Y-93258038D01*
X191514038Y-93162800D01*
X191371180Y-93115180D01*
X191275942Y-93115180D01*
X191133085Y-93162800D01*
X191085466Y-93210419D01*
X190752133Y-93115180D02*
X190133085Y-93115180D01*
X190466419Y-93496133D01*
X190323561Y-93496133D01*
X190228323Y-93543752D01*
X190180704Y-93591371D01*
X190133085Y-93686609D01*
X190133085Y-93924704D01*
X190180704Y-94019942D01*
X190228323Y-94067561D01*
X190323561Y-94115180D01*
X190609276Y-94115180D01*
X190704514Y-94067561D01*
X190752133Y-94019942D01*
%TO.C,R4*%
X186195466Y-94205180D02*
X186528800Y-93728990D01*
X186766895Y-94205180D02*
X186766895Y-93205180D01*
X186385942Y-93205180D01*
X186290704Y-93252800D01*
X186243085Y-93300419D01*
X186195466Y-93395657D01*
X186195466Y-93538514D01*
X186243085Y-93633752D01*
X186290704Y-93681371D01*
X186385942Y-93728990D01*
X186766895Y-93728990D01*
X185338323Y-93538514D02*
X185338323Y-94205180D01*
X185576419Y-93157561D02*
X185814514Y-93871847D01*
X185195466Y-93871847D01*
%TO.C,U2*%
X190210704Y-89035180D02*
X190210704Y-89844704D01*
X190163085Y-89939942D01*
X190115466Y-89987561D01*
X190020228Y-90035180D01*
X189829752Y-90035180D01*
X189734514Y-89987561D01*
X189686895Y-89939942D01*
X189639276Y-89844704D01*
X189639276Y-89035180D01*
X189210704Y-89130419D02*
X189163085Y-89082800D01*
X189067847Y-89035180D01*
X188829752Y-89035180D01*
X188734514Y-89082800D01*
X188686895Y-89130419D01*
X188639276Y-89225657D01*
X188639276Y-89320895D01*
X188686895Y-89463752D01*
X189258323Y-90035180D01*
X188639276Y-90035180D01*
%TO.C,C4*%
X190068800Y-85747800D02*
X190068800Y-83397800D01*
X188668800Y-85747800D02*
X188668800Y-83397800D01*
D11*
%TO.C,U1*%
X183990200Y-87492600D02*
X183990200Y-87942600D01*
X186965200Y-91517600D02*
X186965200Y-88517600D01*
X186965200Y-88517600D02*
X184465200Y-88517600D01*
X184465200Y-88517600D02*
X183965200Y-89017600D01*
X183965200Y-89017600D02*
X183965200Y-91517600D01*
X183965200Y-91517600D02*
X186965200Y-91517600D01*
D10*
%TO.C,R2*%
X192618800Y-88607800D02*
X192618800Y-86257800D01*
X191218800Y-88607800D02*
X191218800Y-86257800D01*
D11*
%TO.C,D1*%
X191109200Y-81166000D02*
X191109200Y-81566000D01*
X191109200Y-85966000D02*
X191109200Y-85566000D01*
X197409200Y-85966000D02*
X197409200Y-85716000D01*
X197409200Y-81166000D02*
X197409200Y-81416000D01*
X197409200Y-81166000D02*
X191109200Y-81166000D01*
X197409200Y-85966000D02*
X191109200Y-85966000D01*
%TO.C,J1*%
X188556600Y-80051200D02*
X185026600Y-80051200D01*
X189881600Y-80051200D02*
X189291600Y-80051200D01*
X188556600Y-82711200D02*
X185026600Y-82711200D01*
%TO.C,Q3*%
X186036000Y-83489200D02*
X187336000Y-83489200D01*
X186036000Y-85639200D02*
X186036000Y-86589200D01*
X187536000Y-85389200D02*
X187536000Y-84689200D01*
X186036000Y-86589200D02*
X187336000Y-86589200D01*
X186036000Y-84439200D02*
X186036000Y-83489200D01*
D12*
X187636000Y-83339200D02*
X187836000Y-83539200D01*
X187836000Y-83539200D02*
X188036000Y-83339200D01*
X188036000Y-83339200D02*
X187636000Y-83339200D01*
G36*
X187836000Y-83539200D02*
G01*
X187636000Y-83339200D01*
X188036000Y-83339200D01*
X187836000Y-83539200D01*
G37*
X187836000Y-83539200D02*
X187636000Y-83339200D01*
X188036000Y-83339200D01*
X187836000Y-83539200D01*
D10*
%TO.C,C3*%
X189665400Y-92873600D02*
X187315400Y-92873600D01*
X189665400Y-94273600D02*
X187315400Y-94273600D01*
%TO.C,R4*%
X182513800Y-93142800D02*
X184863800Y-93142800D01*
X182513800Y-94542800D02*
X184863800Y-94542800D01*
D11*
%TO.C,U2*%
X187877600Y-90209600D02*
X187877600Y-88809600D01*
X190977600Y-90209600D02*
X190977600Y-88809600D01*
D12*
X191077600Y-90559600D02*
X190877600Y-90759600D01*
X190877600Y-90759600D02*
X191077600Y-90959600D01*
X191077600Y-90959600D02*
X191077600Y-90559600D01*
G36*
X191077600Y-90959600D02*
G01*
X190877600Y-90759600D01*
X191077600Y-90559600D01*
X191077600Y-90959600D01*
G37*
X191077600Y-90959600D02*
X190877600Y-90759600D01*
X191077600Y-90559600D01*
X191077600Y-90959600D01*
%TD*%
M02*
