%TF.GenerationSoftware,KiCad,Pcbnew,(6.0.1)*%
%TF.CreationDate,2022-07-18T09:51:57+08:00*%
%TF.ProjectId,HighSideSwitch,48696768-5369-4646-9553-77697463682e,rev?*%
%TF.SameCoordinates,Original*%
%TF.FileFunction,Copper,L1,Top*%
%TF.FilePolarity,Positive*%
%FSLAX46Y46*%
G04 Gerber Fmt 4.6, Leading zero omitted, Abs format (unit mm)*
G04 Created by KiCad (PCBNEW (6.0.1)) date 2022-07-18 09:51:57*
%MOMM*%
%LPD*%
G01*
G04 APERTURE LIST*
G04 Aperture macros list*
%AMRoundRect*
0 Rectangle with rounded corners*
0 $1 Rounding radius*
0 $2 $3 $4 $5 $6 $7 $8 $9 X,Y pos of 4 corners*
0 Add a 4 corners polygon primitive as box body*
4,1,4,$2,$3,$4,$5,$6,$7,$8,$9,$2,$3,0*
0 Add four circle primitives for the rounded corners*
1,1,$1+$1,$2,$3*
1,1,$1+$1,$4,$5*
1,1,$1+$1,$6,$7*
1,1,$1+$1,$8,$9*
0 Add four rect primitives between the rounded corners*
20,1,$1+$1,$2,$3,$4,$5,0*
20,1,$1+$1,$4,$5,$6,$7,0*
20,1,$1+$1,$6,$7,$8,$9,0*
20,1,$1+$1,$8,$9,$2,$3,0*%
G04 Aperture macros list end*
%TA.AperFunction,SMDPad,CuDef*%
%ADD10RoundRect,0.040000X-0.460000X-0.360000X0.460000X-0.360000X0.460000X0.360000X-0.460000X0.360000X0*%
%TD*%
%TA.AperFunction,SMDPad,CuDef*%
%ADD11RoundRect,0.025000X0.225000X-0.275000X0.225000X0.275000X-0.225000X0.275000X-0.225000X-0.275000X0*%
%TD*%
%TA.AperFunction,SMDPad,CuDef*%
%ADD12RoundRect,0.040000X0.360000X-0.460000X0.360000X0.460000X-0.360000X0.460000X-0.360000X-0.460000X0*%
%TD*%
%TA.AperFunction,SMDPad,CuDef*%
%ADD13RoundRect,0.040000X-0.360000X0.460000X-0.360000X-0.460000X0.360000X-0.460000X0.360000X0.460000X0*%
%TD*%
%TA.AperFunction,SMDPad,CuDef*%
%ADD14R,4.400000X4.500000*%
%TD*%
%TA.AperFunction,SMDPad,CuDef*%
%ADD15R,0.950000X0.700000*%
%TD*%
%TA.AperFunction,SMDPad,CuDef*%
%ADD16R,0.950000X3.250000*%
%TD*%
%TA.AperFunction,SMDPad,CuDef*%
%ADD17RoundRect,0.040000X0.460000X0.360000X-0.460000X0.360000X-0.460000X-0.360000X0.460000X-0.360000X0*%
%TD*%
%TA.AperFunction,SMDPad,CuDef*%
%ADD18RoundRect,0.025000X-0.225000X0.275000X-0.225000X-0.275000X0.225000X-0.275000X0.225000X0.275000X0*%
%TD*%
%TA.AperFunction,ComponentPad*%
%ADD19C,6.400000*%
%TD*%
%TA.AperFunction,ComponentPad*%
%ADD20C,0.800000*%
%TD*%
%TA.AperFunction,ViaPad*%
%ADD21C,0.600000*%
%TD*%
%TA.AperFunction,Conductor*%
%ADD22C,0.250000*%
%TD*%
%TA.AperFunction,Conductor*%
%ADD23C,0.400000*%
%TD*%
G04 APERTURE END LIST*
D10*
%TO.P,R9,1*%
%TO.N,/~{EN}*%
X186836800Y-80276800D03*
%TO.P,R9,2*%
%TO.N,Net-(C4-Pad2)*%
X186836800Y-81876800D03*
%TD*%
D11*
%TO.P,R1,1*%
%TO.N,/NMOS_IN*%
X182548800Y-87062800D03*
%TO.P,R1,2*%
%TO.N,Net-(R1-Pad2)*%
X183548800Y-87062800D03*
%TD*%
%TO.P,C1,1*%
%TO.N,/NMOS_IN*%
X182548800Y-88172800D03*
%TO.P,C1,2*%
%TO.N,GND*%
X183548800Y-88172800D03*
%TD*%
D12*
%TO.P,D2,1,Cathode*%
%TO.N,GND*%
X188221200Y-93675200D03*
%TO.P,D2,2,Anode*%
%TO.N,Net-(D2-Pad2)*%
X189821200Y-93675200D03*
%TD*%
D13*
%TO.P,R5,1*%
%TO.N,Net-(R3-Pad1)*%
X186738800Y-90452800D03*
%TO.P,R5,2*%
%TO.N,Net-(R5-Pad2)*%
X185138800Y-90452800D03*
%TD*%
D14*
%TO.P,Q2,D,Drain*%
%TO.N,/NMOS_IN*%
X179588400Y-83616800D03*
D15*
%TO.P,Q2,G,Gate*%
%TO.N,Net-(Q2-PadG)*%
X183313400Y-81716800D03*
D16*
%TO.P,Q2,S,Source*%
%TO.N,Net-(D1-PadA)*%
X183313400Y-84241800D03*
%TD*%
D13*
%TO.P,R6,1*%
%TO.N,GND*%
X186738800Y-92502800D03*
%TO.P,R6,2*%
%TO.N,Net-(R5-Pad2)*%
X185138800Y-92502800D03*
%TD*%
D17*
%TO.P,R11,1*%
%TO.N,Net-(D2-Pad2)*%
X189986400Y-92189200D03*
%TO.P,R11,2*%
%TO.N,Net-(D1-PadA)*%
X189986400Y-90589200D03*
%TD*%
D18*
%TO.P,R7,1*%
%TO.N,/EN*%
X183928800Y-89282800D03*
%TO.P,R7,2*%
%TO.N,/NMOS_IN*%
X182928800Y-89282800D03*
%TD*%
D19*
%TO.P,H2,1*%
%TO.N,/NMOS_OUT*%
X194927344Y-91338256D03*
D20*
X194927344Y-88938256D03*
X194927344Y-93738256D03*
X193230288Y-89641200D03*
X193230288Y-93035312D03*
X196624400Y-89641200D03*
X192527344Y-91338256D03*
X196624400Y-93035312D03*
X197327344Y-91338256D03*
%TD*%
D13*
%TO.P,R3,1*%
%TO.N,Net-(R3-Pad1)*%
X184385600Y-94030800D03*
%TO.P,R3,2*%
%TO.N,/NMOS_IN*%
X182785600Y-94030800D03*
%TD*%
D14*
%TO.P,Q1,D,Drain*%
%TO.N,/NMOS_OUT*%
X195218800Y-84452800D03*
D15*
%TO.P,Q1,G,Gate*%
%TO.N,Net-(Q1-PadG)*%
X191493800Y-86352800D03*
D16*
%TO.P,Q1,S,Source*%
%TO.N,Net-(D1-PadA)*%
X191493800Y-83827800D03*
%TD*%
D17*
%TO.P,R8,1*%
%TO.N,/EN*%
X187141600Y-88328400D03*
%TO.P,R8,2*%
%TO.N,GND*%
X187141600Y-86728400D03*
%TD*%
D20*
%TO.P,H1,1*%
%TO.N,/NMOS_IN*%
X181224400Y-93035312D03*
X181224400Y-89641200D03*
X179527344Y-93738256D03*
X179527344Y-88938256D03*
X177830288Y-89641200D03*
X177830288Y-93035312D03*
X181927344Y-91338256D03*
X177127344Y-91338256D03*
D19*
X179527344Y-91338256D03*
%TD*%
D10*
%TO.P,R10,1*%
%TO.N,GND*%
X185278800Y-80272800D03*
%TO.P,R10,2*%
%TO.N,Net-(C4-Pad2)*%
X185278800Y-81872800D03*
%TD*%
D21*
%TO.N,GND*%
X188818000Y-92151200D03*
X187751200Y-86614000D03*
X187248800Y-92392800D03*
X188868800Y-80619600D03*
%TO.N,/NMOS_OUT*%
X197459600Y-84074000D03*
X193192400Y-84074000D03*
X196037200Y-81432400D03*
X197459600Y-82753200D03*
X193192400Y-85293200D03*
X194564000Y-82753200D03*
X196037200Y-86512400D03*
X194564000Y-81432400D03*
X196037200Y-85293200D03*
X196037200Y-84074000D03*
X193192400Y-81432400D03*
X193192400Y-86512400D03*
X194564000Y-84074000D03*
X193192400Y-82753200D03*
X196037200Y-82753200D03*
X194564000Y-86512400D03*
X194564000Y-85293200D03*
X197459600Y-86512400D03*
X197459600Y-81432400D03*
X197459600Y-85293200D03*
%TO.N,/NMOS_IN*%
X179978800Y-82956400D03*
X178962800Y-85547200D03*
X177743600Y-84226400D03*
X177743600Y-81991200D03*
X181096400Y-85598000D03*
X177743600Y-85496400D03*
X179978800Y-84277200D03*
X181045600Y-83007200D03*
X178962800Y-84226400D03*
X179928000Y-82042000D03*
X178912000Y-82956400D03*
X181045600Y-82042000D03*
X180029600Y-85598000D03*
X181045600Y-84226400D03*
X178912000Y-81991200D03*
X177743600Y-83007200D03*
%TO.N,/~{EN}*%
X186838800Y-79932800D03*
%TO.N,/EN*%
X187141600Y-88798400D03*
%TO.N,Net-(R1-Pad2)*%
X183890400Y-87071200D03*
%TO.N,Net-(C4-Pad2)*%
X186836800Y-82272800D03*
%TO.N,Net-(D1-PadA)*%
X191973200Y-85191600D03*
X191973200Y-84277200D03*
X188716400Y-89357200D03*
X191008000Y-82600800D03*
X191922400Y-82245200D03*
X191008000Y-85039200D03*
X191008000Y-83972400D03*
X191922400Y-83210400D03*
%TO.N,Net-(Q1-PadG)*%
X190548629Y-86874090D03*
%TO.N,Net-(Q2-PadG)*%
X182368496Y-82096899D03*
%TO.N,Net-(R3-Pad1)*%
X186568800Y-89968300D03*
%TO.N,Net-(R5-Pad2)*%
X185089700Y-89982800D03*
%TD*%
D22*
%TO.N,/EN*%
X186720289Y-88377089D02*
X184834511Y-88377089D01*
X184834511Y-88377089D02*
X183928800Y-89282800D01*
%TO.N,Net-(C4-Pad2)*%
X186587600Y-81882800D02*
X185470000Y-81882800D01*
X185719200Y-81838800D02*
X185516000Y-81635600D01*
%TO.N,Net-(D1-PadA)*%
X189986400Y-90879200D02*
X189986400Y-90627200D01*
X189986400Y-90627200D02*
X188716400Y-89357200D01*
%TO.N,Net-(D2-Pad2)*%
X189808700Y-92076900D02*
X189986400Y-91899200D01*
X189808700Y-93675200D02*
X189808700Y-92076900D01*
D23*
%TO.N,Net-(Q1-PadG)*%
X190548629Y-86874090D02*
X190986519Y-86436200D01*
X190986519Y-86436200D02*
X191210400Y-86436200D01*
D22*
%TO.N,Net-(Q2-PadG)*%
X183488400Y-81711800D02*
X182753595Y-81711800D01*
X182753595Y-81711800D02*
X182368496Y-82096899D01*
%TO.N,Net-(R3-Pad1)*%
X188945720Y-94286189D02*
X188732189Y-94499720D01*
X184564520Y-94499720D02*
X184095600Y-94030800D01*
X186568800Y-89968300D02*
X187903600Y-91303100D01*
X188643510Y-92762001D02*
X188945720Y-93064211D01*
X188732189Y-94499720D02*
X184564520Y-94499720D01*
X188945720Y-93064211D02*
X188945720Y-94286189D01*
X187903600Y-91303100D02*
X187903600Y-92762001D01*
X187903600Y-92762001D02*
X188643510Y-92762001D01*
%TO.N,Net-(R5-Pad2)*%
X185158400Y-92173200D02*
X184918800Y-92412800D01*
X185158400Y-89814400D02*
X185158400Y-92173200D01*
%TD*%
%TA.AperFunction,Conductor*%
%TO.N,Net-(D1-PadA)*%
G36*
X192456518Y-81653906D02*
G01*
X192474819Y-81698872D01*
X192461570Y-82772024D01*
X192425572Y-85687859D01*
X192406722Y-85731823D01*
X192362260Y-85749582D01*
X186607616Y-85674358D01*
X184652400Y-85648800D01*
X184643847Y-85655844D01*
X184643846Y-85655844D01*
X183806108Y-86345746D01*
X183766376Y-86360000D01*
X182987700Y-86360000D01*
X182943506Y-86341694D01*
X182925200Y-86297500D01*
X182925200Y-82612500D01*
X182943506Y-82568306D01*
X182987700Y-82550000D01*
X186386812Y-82550000D01*
X186431006Y-82568306D01*
X186434654Y-82572283D01*
X186499770Y-82649748D01*
X186619113Y-82729190D01*
X186623364Y-82730518D01*
X186751705Y-82770614D01*
X186751708Y-82770614D01*
X186755957Y-82771942D01*
X186760409Y-82772024D01*
X186760411Y-82772024D01*
X186831442Y-82773326D01*
X186899299Y-82774570D01*
X187037617Y-82736860D01*
X187159791Y-82661845D01*
X187242419Y-82570558D01*
X187288756Y-82550000D01*
X189326000Y-82550000D01*
X190528534Y-81648100D01*
X190566033Y-81635600D01*
X192412324Y-81635600D01*
X192456518Y-81653906D01*
G37*
%TD.AperFunction*%
%TD*%
%TA.AperFunction,Conductor*%
%TO.N,/NMOS_IN*%
G36*
X183214894Y-79698106D02*
G01*
X183233200Y-79742300D01*
X183233200Y-81103800D01*
X183214894Y-81147994D01*
X183170700Y-81166300D01*
X182818652Y-81166300D01*
X182815642Y-81166899D01*
X182815639Y-81166899D01*
X182766205Y-81176732D01*
X182766203Y-81176733D01*
X182760169Y-81177933D01*
X182755055Y-81181350D01*
X182755053Y-81181351D01*
X182710720Y-81210974D01*
X182693848Y-81222248D01*
X182649533Y-81288569D01*
X182637900Y-81347052D01*
X182637900Y-81362914D01*
X182619594Y-81407108D01*
X182611252Y-81414108D01*
X182586708Y-81431294D01*
X182580770Y-81435451D01*
X182576176Y-81438378D01*
X182541140Y-81458606D01*
X182537624Y-81462796D01*
X182515136Y-81489596D01*
X182511452Y-81493616D01*
X182426939Y-81578129D01*
X182382363Y-81596434D01*
X182304325Y-81595957D01*
X182304323Y-81595957D01*
X182299872Y-81595930D01*
X182162025Y-81635327D01*
X182040776Y-81711829D01*
X182037833Y-81715161D01*
X182037831Y-81715163D01*
X181948820Y-81815950D01*
X181945873Y-81819287D01*
X181884943Y-81949062D01*
X181862887Y-82090722D01*
X181881476Y-82232878D01*
X181939216Y-82364102D01*
X181942080Y-82367509D01*
X182028603Y-82470442D01*
X182028606Y-82470445D01*
X182031466Y-82473847D01*
X182150809Y-82553289D01*
X182155060Y-82554617D01*
X182283401Y-82594713D01*
X182283404Y-82594713D01*
X182287653Y-82596041D01*
X182292105Y-82596123D01*
X182292107Y-82596123D01*
X182363138Y-82597425D01*
X182430995Y-82598669D01*
X182435293Y-82597497D01*
X182435295Y-82597497D01*
X182558961Y-82563782D01*
X182606414Y-82569819D01*
X182635699Y-82607642D01*
X182637900Y-82624081D01*
X182637900Y-85886548D01*
X182638499Y-85889558D01*
X182638499Y-85889561D01*
X182644068Y-85917555D01*
X182649533Y-85945031D01*
X182652950Y-85950145D01*
X182652951Y-85950147D01*
X182690430Y-86006237D01*
X182693848Y-86011352D01*
X182698964Y-86014771D01*
X182703318Y-86019124D01*
X182701941Y-86020501D01*
X182724000Y-86053518D01*
X182725200Y-86065708D01*
X182725200Y-86297500D01*
X182725799Y-86300510D01*
X182725799Y-86300513D01*
X182730047Y-86321867D01*
X182740424Y-86374038D01*
X182758730Y-86418232D01*
X182794377Y-86474963D01*
X182799400Y-86478527D01*
X182851071Y-86515190D01*
X182866968Y-86526470D01*
X182870210Y-86527813D01*
X182870212Y-86527814D01*
X182889220Y-86535687D01*
X182911162Y-86544776D01*
X182914166Y-86545374D01*
X182914171Y-86545375D01*
X182984687Y-86559401D01*
X182984690Y-86559401D01*
X182987700Y-86560000D01*
X183087874Y-86560000D01*
X183132068Y-86578306D01*
X183150374Y-86622500D01*
X183139841Y-86657223D01*
X183111383Y-86699814D01*
X183098300Y-86765589D01*
X183098301Y-87360010D01*
X183111383Y-87425786D01*
X183161223Y-87500377D01*
X183166340Y-87503796D01*
X183212054Y-87534341D01*
X183238630Y-87574115D01*
X183238630Y-87598500D01*
X183233200Y-87625800D01*
X183233200Y-87653723D01*
X183214894Y-87697917D01*
X183205424Y-87705689D01*
X183161223Y-87735223D01*
X183111383Y-87809814D01*
X183098300Y-87875589D01*
X183098301Y-88470010D01*
X183098900Y-88473020D01*
X183098900Y-88473024D01*
X183107808Y-88517813D01*
X183111383Y-88535786D01*
X183161223Y-88610377D01*
X183166340Y-88613796D01*
X183205423Y-88639910D01*
X183231999Y-88679683D01*
X183233200Y-88691877D01*
X183233200Y-88804056D01*
X183233799Y-88807066D01*
X183233799Y-88807069D01*
X183247685Y-88876877D01*
X183248424Y-88880594D01*
X183266730Y-88924788D01*
X183302377Y-88981519D01*
X183374968Y-89033026D01*
X183378210Y-89034369D01*
X183378212Y-89034370D01*
X183416728Y-89050324D01*
X183416730Y-89050325D01*
X183419162Y-89051332D01*
X183429709Y-89053739D01*
X183468721Y-89081421D01*
X183478300Y-89114672D01*
X183478301Y-89451443D01*
X183459995Y-89495637D01*
X183426274Y-89513060D01*
X183419162Y-89514268D01*
X183374968Y-89532574D01*
X183318237Y-89568221D01*
X183266730Y-89640812D01*
X183248424Y-89685006D01*
X183247826Y-89688010D01*
X183247825Y-89688015D01*
X183234698Y-89754013D01*
X183233200Y-89761544D01*
X183233200Y-94499700D01*
X183214894Y-94543894D01*
X183170700Y-94562200D01*
X179494838Y-94562200D01*
X179479232Y-94560220D01*
X179477527Y-94559780D01*
X179477525Y-94559780D01*
X179469560Y-94557726D01*
X179461634Y-94559930D01*
X179456074Y-94559982D01*
X179445734Y-94561164D01*
X179140375Y-94547855D01*
X179133785Y-94547217D01*
X178811192Y-94498615D01*
X178804707Y-94497283D01*
X178489076Y-94414833D01*
X178482768Y-94412823D01*
X178182832Y-94299415D01*
X178177622Y-94297445D01*
X178171564Y-94294780D01*
X178158969Y-94288422D01*
X177928203Y-94171936D01*
X177880329Y-94147770D01*
X177874585Y-94144477D01*
X177600548Y-93967492D01*
X177595185Y-93963611D01*
X177341400Y-93758628D01*
X177336477Y-93754201D01*
X177105799Y-93523523D01*
X177101372Y-93518600D01*
X176896389Y-93264815D01*
X176892508Y-93259452D01*
X176715523Y-92985415D01*
X176712230Y-92979671D01*
X176627001Y-92810827D01*
X176565219Y-92688434D01*
X176562554Y-92682376D01*
X176540191Y-92623230D01*
X176474895Y-92450539D01*
X176447177Y-92377232D01*
X176445167Y-92370924D01*
X176362717Y-92055293D01*
X176361385Y-92048808D01*
X176312783Y-91726215D01*
X176312145Y-91719625D01*
X176298836Y-91414266D01*
X176300018Y-91403926D01*
X176300070Y-91398366D01*
X176302274Y-91390440D01*
X176299775Y-91380748D01*
X176297796Y-91365156D01*
X176295833Y-79742311D01*
X176314131Y-79698113D01*
X176358333Y-79679800D01*
X183170700Y-79679800D01*
X183214894Y-79698106D01*
G37*
%TD.AperFunction*%
%TD*%
%TA.AperFunction,Conductor*%
%TO.N,GND*%
G36*
X186605002Y-85874341D02*
G01*
X190432717Y-85924377D01*
X190476668Y-85943259D01*
X190494400Y-85986872D01*
X190494400Y-86321867D01*
X190476094Y-86366061D01*
X190449075Y-86381961D01*
X190342158Y-86412518D01*
X190220909Y-86489020D01*
X190217966Y-86492352D01*
X190217964Y-86492354D01*
X190158222Y-86560000D01*
X190126006Y-86596478D01*
X190065076Y-86726253D01*
X190043020Y-86867913D01*
X190061609Y-87010069D01*
X190119349Y-87141293D01*
X190122213Y-87144700D01*
X190208736Y-87247633D01*
X190208739Y-87247636D01*
X190211599Y-87251038D01*
X190330942Y-87330480D01*
X190450539Y-87367844D01*
X190487262Y-87398494D01*
X190494400Y-87427499D01*
X190494400Y-89926200D01*
X190476094Y-89970394D01*
X190431900Y-89988700D01*
X189834115Y-89988700D01*
X189789921Y-89970394D01*
X189515399Y-89695872D01*
X189239690Y-89420164D01*
X189221384Y-89375970D01*
X189221590Y-89371374D01*
X189221896Y-89369554D01*
X189222047Y-89357200D01*
X189201723Y-89215282D01*
X189142384Y-89084772D01*
X189048800Y-88976163D01*
X188928495Y-88898185D01*
X188915856Y-88894405D01*
X188822734Y-88866556D01*
X188791139Y-88857107D01*
X188719457Y-88856669D01*
X188652229Y-88856258D01*
X188652228Y-88856258D01*
X188647776Y-88856231D01*
X188509929Y-88895628D01*
X188388680Y-88972130D01*
X188385737Y-88975462D01*
X188385735Y-88975464D01*
X188309726Y-89061529D01*
X188293777Y-89079588D01*
X188232847Y-89209363D01*
X188210791Y-89351023D01*
X188211368Y-89355436D01*
X188211368Y-89355438D01*
X188212898Y-89367136D01*
X188229380Y-89493179D01*
X188231173Y-89497254D01*
X188278641Y-89605132D01*
X188287120Y-89624403D01*
X188289984Y-89627810D01*
X188376507Y-89730743D01*
X188376510Y-89730746D01*
X188379370Y-89734148D01*
X188498713Y-89813590D01*
X188506395Y-89815990D01*
X188631305Y-89855014D01*
X188631308Y-89855014D01*
X188635557Y-89856342D01*
X188640009Y-89856424D01*
X188640011Y-89856424D01*
X188732236Y-89858115D01*
X188775284Y-89876410D01*
X189267594Y-90368721D01*
X189285900Y-90412915D01*
X189285900Y-90972888D01*
X189286499Y-90975898D01*
X189286499Y-90975901D01*
X189293507Y-91011130D01*
X189299854Y-91043039D01*
X189353009Y-91122591D01*
X189364510Y-91130276D01*
X189427442Y-91172326D01*
X189427444Y-91172327D01*
X189432561Y-91175746D01*
X189464470Y-91182093D01*
X189499699Y-91189101D01*
X189499702Y-91189101D01*
X189502712Y-91189700D01*
X189876772Y-91189700D01*
X189898149Y-91193469D01*
X189929006Y-91204700D01*
X190043794Y-91204700D01*
X190074651Y-91193469D01*
X190096027Y-91189700D01*
X190431900Y-91189700D01*
X190476094Y-91208006D01*
X190494400Y-91252200D01*
X190494400Y-91526200D01*
X190476094Y-91570394D01*
X190431900Y-91588700D01*
X190104585Y-91588700D01*
X190078174Y-91582845D01*
X190071946Y-91579941D01*
X190066500Y-91579465D01*
X190066498Y-91579464D01*
X190014769Y-91574938D01*
X189957593Y-91569936D01*
X189911630Y-91582252D01*
X189895515Y-91586570D01*
X189879339Y-91588700D01*
X189502712Y-91588700D01*
X189499702Y-91589299D01*
X189499699Y-91589299D01*
X189464470Y-91596307D01*
X189432561Y-91602654D01*
X189427444Y-91606073D01*
X189427442Y-91606074D01*
X189368666Y-91645347D01*
X189353009Y-91655809D01*
X189299854Y-91735361D01*
X189293507Y-91767270D01*
X189291362Y-91778055D01*
X189285900Y-91805512D01*
X189285900Y-92572888D01*
X189299854Y-92643039D01*
X189353009Y-92722591D01*
X189358126Y-92726010D01*
X189427442Y-92772326D01*
X189427444Y-92772327D01*
X189432561Y-92775746D01*
X189438599Y-92776947D01*
X189444285Y-92779302D01*
X189442947Y-92782532D01*
X189472663Y-92802382D01*
X189483200Y-92837111D01*
X189483200Y-92914320D01*
X189464894Y-92958514D01*
X189432894Y-92975619D01*
X189367361Y-92988654D01*
X189359814Y-92993697D01*
X189353568Y-92997870D01*
X189306651Y-93007202D01*
X189266878Y-92980626D01*
X189259256Y-92961644D01*
X189259129Y-92961690D01*
X189257718Y-92957813D01*
X189257295Y-92956760D01*
X189257258Y-92956549D01*
X189257256Y-92956544D01*
X189256308Y-92951166D01*
X189253147Y-92945690D01*
X189246908Y-92930628D01*
X189246689Y-92929809D01*
X189246688Y-92929806D01*
X189245273Y-92924527D01*
X189222062Y-92891377D01*
X189219147Y-92886801D01*
X189201649Y-92856492D01*
X189201647Y-92856489D01*
X189198914Y-92851756D01*
X189167924Y-92825752D01*
X189163904Y-92822068D01*
X188885655Y-92543820D01*
X188881971Y-92539800D01*
X188859480Y-92512996D01*
X188855965Y-92508807D01*
X188820924Y-92488576D01*
X188816332Y-92485651D01*
X188787670Y-92465581D01*
X188787669Y-92465581D01*
X188783194Y-92462447D01*
X188777917Y-92461033D01*
X188777915Y-92461032D01*
X188777096Y-92460813D01*
X188762023Y-92454569D01*
X188761294Y-92454148D01*
X188761289Y-92454146D01*
X188756555Y-92451413D01*
X188716714Y-92444388D01*
X188711393Y-92443208D01*
X188677599Y-92434152D01*
X188677597Y-92434152D01*
X188672317Y-92432737D01*
X188634059Y-92436084D01*
X188632016Y-92436263D01*
X188626569Y-92436501D01*
X188291600Y-92436501D01*
X188247406Y-92418195D01*
X188229100Y-92374001D01*
X188229100Y-91320033D01*
X188229338Y-91314586D01*
X188232387Y-91279738D01*
X188232387Y-91279736D01*
X188232863Y-91274293D01*
X188222390Y-91235206D01*
X188221212Y-91229888D01*
X188215138Y-91195442D01*
X188214188Y-91190055D01*
X188211030Y-91184584D01*
X188204790Y-91169519D01*
X188204570Y-91168696D01*
X188204567Y-91168691D01*
X188203154Y-91163416D01*
X188179944Y-91130268D01*
X188177021Y-91125679D01*
X188159528Y-91095381D01*
X188156794Y-91090645D01*
X188125804Y-91064641D01*
X188121784Y-91060957D01*
X187357606Y-90296780D01*
X187339300Y-90252586D01*
X187339300Y-89969112D01*
X187325346Y-89898961D01*
X187272191Y-89819409D01*
X187239483Y-89797554D01*
X187197758Y-89769674D01*
X187197756Y-89769673D01*
X187192639Y-89766254D01*
X187160730Y-89759907D01*
X187125501Y-89752899D01*
X187125498Y-89752899D01*
X187122488Y-89752300D01*
X187060680Y-89752300D01*
X187016486Y-89733994D01*
X187003785Y-89715669D01*
X187003219Y-89714423D01*
X186999020Y-89705188D01*
X186996626Y-89699923D01*
X186996626Y-89699922D01*
X186994784Y-89695872D01*
X186991882Y-89692504D01*
X186991880Y-89692501D01*
X186904103Y-89590632D01*
X186901200Y-89587263D01*
X186780895Y-89509285D01*
X186768256Y-89505505D01*
X186696294Y-89483984D01*
X186643539Y-89468207D01*
X186571857Y-89467769D01*
X186504629Y-89467358D01*
X186504628Y-89467358D01*
X186500176Y-89467331D01*
X186362329Y-89506728D01*
X186241080Y-89583230D01*
X186238137Y-89586562D01*
X186238135Y-89586564D01*
X186191166Y-89639747D01*
X186146177Y-89690688D01*
X186085247Y-89820463D01*
X186063191Y-89962123D01*
X186063768Y-89966536D01*
X186063768Y-89966538D01*
X186064506Y-89972183D01*
X186081780Y-90104279D01*
X186083573Y-90108354D01*
X186133007Y-90220701D01*
X186138300Y-90245873D01*
X186138300Y-90936488D01*
X186152254Y-91006639D01*
X186155673Y-91011756D01*
X186155674Y-91011758D01*
X186176576Y-91043039D01*
X186205409Y-91086191D01*
X186210526Y-91089610D01*
X186279842Y-91135926D01*
X186279844Y-91135927D01*
X186284961Y-91139346D01*
X186316870Y-91145693D01*
X186352099Y-91152701D01*
X186352102Y-91152701D01*
X186355112Y-91153300D01*
X187122488Y-91153300D01*
X187125498Y-91152701D01*
X187125501Y-91152701D01*
X187160730Y-91145693D01*
X187192639Y-91139346D01*
X187197757Y-91135927D01*
X187197758Y-91135926D01*
X187202072Y-91133043D01*
X187248988Y-91123711D01*
X187280989Y-91140816D01*
X187559794Y-91419621D01*
X187578100Y-91463815D01*
X187578100Y-92819395D01*
X187579971Y-92824535D01*
X187586120Y-92841430D01*
X187588939Y-92851953D01*
X187592061Y-92869656D01*
X187592062Y-92869659D01*
X187593012Y-92875046D01*
X187595747Y-92879783D01*
X187595748Y-92879786D01*
X187604736Y-92895354D01*
X187609341Y-92905229D01*
X187617360Y-92927261D01*
X187620874Y-92931449D01*
X187632433Y-92945225D01*
X187638681Y-92954149D01*
X187647670Y-92969719D01*
X187647673Y-92969723D01*
X187650406Y-92974456D01*
X187654595Y-92977971D01*
X187668369Y-92989529D01*
X187676071Y-92997231D01*
X187684438Y-93007202D01*
X187691145Y-93015195D01*
X187695881Y-93017929D01*
X187711449Y-93026917D01*
X187720375Y-93033167D01*
X187738339Y-93048241D01*
X187744821Y-93050600D01*
X187760380Y-93056263D01*
X187770253Y-93060868D01*
X187790555Y-93072589D01*
X187795942Y-93073539D01*
X187795945Y-93073540D01*
X187813642Y-93076660D01*
X187824166Y-93079479D01*
X187846206Y-93087501D01*
X188482796Y-93087501D01*
X188526990Y-93105807D01*
X188601914Y-93180732D01*
X188620220Y-93224926D01*
X188620220Y-94111720D01*
X188601914Y-94155914D01*
X188557720Y-94174220D01*
X185048600Y-94174220D01*
X185004406Y-94155914D01*
X184986100Y-94111720D01*
X184986100Y-93547112D01*
X184972146Y-93476961D01*
X184918991Y-93397409D01*
X184903334Y-93386947D01*
X184844558Y-93347674D01*
X184844556Y-93347673D01*
X184839439Y-93344254D01*
X184807530Y-93337907D01*
X184772301Y-93330899D01*
X184772298Y-93330899D01*
X184769288Y-93330300D01*
X184001912Y-93330300D01*
X183998902Y-93330899D01*
X183998899Y-93330899D01*
X183963670Y-93337907D01*
X183931761Y-93344254D01*
X183926644Y-93347673D01*
X183926642Y-93347674D01*
X183867866Y-93386947D01*
X183852209Y-93397409D01*
X183799054Y-93476961D01*
X183785100Y-93547112D01*
X183785100Y-93912615D01*
X183779245Y-93939026D01*
X183776341Y-93945254D01*
X183766336Y-94059607D01*
X183767752Y-94064890D01*
X183782970Y-94121685D01*
X183785100Y-94137861D01*
X183785100Y-94499700D01*
X183766794Y-94543894D01*
X183722600Y-94562200D01*
X183495700Y-94562200D01*
X183451506Y-94543894D01*
X183433200Y-94499700D01*
X183433200Y-92986488D01*
X184538300Y-92986488D01*
X184552254Y-93056639D01*
X184555673Y-93061756D01*
X184555674Y-93061758D01*
X184566266Y-93077610D01*
X184605409Y-93136191D01*
X184610526Y-93139610D01*
X184679842Y-93185926D01*
X184679844Y-93185927D01*
X184684961Y-93189346D01*
X184716870Y-93195693D01*
X184752099Y-93202701D01*
X184752102Y-93202701D01*
X184755112Y-93203300D01*
X185522488Y-93203300D01*
X185525498Y-93202701D01*
X185525501Y-93202701D01*
X185560730Y-93195693D01*
X185592639Y-93189346D01*
X185597756Y-93185927D01*
X185597758Y-93185926D01*
X185667074Y-93139610D01*
X185672191Y-93136191D01*
X185711334Y-93077610D01*
X185721926Y-93061758D01*
X185721927Y-93061756D01*
X185725346Y-93056639D01*
X185739300Y-92986488D01*
X185739300Y-92019112D01*
X185725346Y-91948961D01*
X185672191Y-91869409D01*
X185656534Y-91858947D01*
X185597758Y-91819674D01*
X185597756Y-91819673D01*
X185592639Y-91816254D01*
X185534207Y-91804631D01*
X185494433Y-91778055D01*
X185483900Y-91743332D01*
X185483900Y-91212268D01*
X185502206Y-91168074D01*
X185534207Y-91150969D01*
X185546092Y-91148605D01*
X185592639Y-91139346D01*
X185597756Y-91135927D01*
X185597758Y-91135926D01*
X185667074Y-91089610D01*
X185672191Y-91086191D01*
X185701024Y-91043039D01*
X185721926Y-91011758D01*
X185721927Y-91011756D01*
X185725346Y-91006639D01*
X185739300Y-90936488D01*
X185739300Y-89969112D01*
X185725346Y-89898961D01*
X185672191Y-89819409D01*
X185639483Y-89797554D01*
X185597758Y-89769674D01*
X185597756Y-89769673D01*
X185592639Y-89766254D01*
X185567402Y-89761234D01*
X185527628Y-89734658D01*
X185522700Y-89725804D01*
X185521787Y-89723796D01*
X185515684Y-89710372D01*
X185512782Y-89707004D01*
X185512780Y-89707001D01*
X185425003Y-89605132D01*
X185422100Y-89601763D01*
X185388539Y-89580010D01*
X185378210Y-89573315D01*
X185372030Y-89568746D01*
X185327850Y-89531674D01*
X185327846Y-89531672D01*
X185323661Y-89528160D01*
X185215794Y-89488900D01*
X185194294Y-89488900D01*
X185176386Y-89486279D01*
X185168711Y-89483984D01*
X185168707Y-89483983D01*
X185164439Y-89482707D01*
X185092758Y-89482269D01*
X185025529Y-89481858D01*
X185025528Y-89481858D01*
X185021076Y-89481831D01*
X184883229Y-89521228D01*
X184761980Y-89597730D01*
X184759037Y-89601062D01*
X184759035Y-89601064D01*
X184672503Y-89699044D01*
X184667077Y-89705188D01*
X184665185Y-89709218D01*
X184623710Y-89797554D01*
X184611331Y-89815185D01*
X184610527Y-89815989D01*
X184605409Y-89819409D01*
X184601990Y-89824526D01*
X184601988Y-89824528D01*
X184567322Y-89876410D01*
X184552254Y-89898961D01*
X184538300Y-89969112D01*
X184538300Y-90936488D01*
X184552254Y-91006639D01*
X184555673Y-91011756D01*
X184555674Y-91011758D01*
X184576576Y-91043039D01*
X184605409Y-91086191D01*
X184610526Y-91089610D01*
X184679842Y-91135926D01*
X184679844Y-91135927D01*
X184684961Y-91139346D01*
X184716870Y-91145693D01*
X184752099Y-91152701D01*
X184752102Y-91152701D01*
X184755112Y-91153300D01*
X184770400Y-91153300D01*
X184814594Y-91171606D01*
X184832900Y-91215800D01*
X184832900Y-91739800D01*
X184814594Y-91783994D01*
X184770400Y-91802300D01*
X184755112Y-91802300D01*
X184752102Y-91802899D01*
X184752099Y-91802899D01*
X184723525Y-91808583D01*
X184684961Y-91816254D01*
X184679844Y-91819673D01*
X184679842Y-91819674D01*
X184621066Y-91858947D01*
X184605409Y-91869409D01*
X184552254Y-91948961D01*
X184538300Y-92019112D01*
X184538300Y-92986488D01*
X183433200Y-92986488D01*
X183433200Y-89761544D01*
X183451506Y-89717350D01*
X183495700Y-89699044D01*
X183538935Y-89716953D01*
X183541223Y-89720377D01*
X183546340Y-89723796D01*
X183610695Y-89766797D01*
X183610697Y-89766798D01*
X183615814Y-89770217D01*
X183643727Y-89775769D01*
X183678576Y-89782701D01*
X183678579Y-89782701D01*
X183681589Y-89783300D01*
X183928800Y-89783300D01*
X184176010Y-89783299D01*
X184179020Y-89782700D01*
X184179024Y-89782700D01*
X184235748Y-89771418D01*
X184235749Y-89771418D01*
X184241786Y-89770217D01*
X184316377Y-89720377D01*
X184366217Y-89645786D01*
X184374303Y-89605132D01*
X184378701Y-89583024D01*
X184378701Y-89583021D01*
X184379300Y-89580011D01*
X184379300Y-89318514D01*
X184397606Y-89274320D01*
X184951031Y-88720895D01*
X184995225Y-88702589D01*
X186387918Y-88702589D01*
X186432112Y-88720895D01*
X186449217Y-88752895D01*
X186455054Y-88782239D01*
X186458473Y-88787356D01*
X186458474Y-88787358D01*
X186494854Y-88841804D01*
X186508209Y-88861791D01*
X186513326Y-88865210D01*
X186582642Y-88911526D01*
X186582644Y-88911527D01*
X186587761Y-88914946D01*
X186593799Y-88916147D01*
X186619709Y-88921301D01*
X186659482Y-88947877D01*
X186664721Y-88957426D01*
X186712320Y-89065603D01*
X186715184Y-89069010D01*
X186801707Y-89171943D01*
X186801710Y-89171946D01*
X186804570Y-89175348D01*
X186923913Y-89254790D01*
X186928164Y-89256118D01*
X187056505Y-89296214D01*
X187056508Y-89296214D01*
X187060757Y-89297542D01*
X187065209Y-89297624D01*
X187065211Y-89297624D01*
X187136242Y-89298926D01*
X187204099Y-89300170D01*
X187342417Y-89262460D01*
X187464591Y-89187445D01*
X187560800Y-89081154D01*
X187621999Y-88954839D01*
X187657741Y-88923050D01*
X187666051Y-88920792D01*
X187689403Y-88916147D01*
X187689404Y-88916146D01*
X187695439Y-88914946D01*
X187774991Y-88861791D01*
X187788346Y-88841804D01*
X187824726Y-88787358D01*
X187824727Y-88787356D01*
X187828146Y-88782239D01*
X187842100Y-88712088D01*
X187842100Y-87944712D01*
X187828146Y-87874561D01*
X187774991Y-87795009D01*
X187759334Y-87784547D01*
X187700558Y-87745274D01*
X187700556Y-87745273D01*
X187695439Y-87741854D01*
X187663530Y-87735507D01*
X187628301Y-87728499D01*
X187628298Y-87728499D01*
X187625288Y-87727900D01*
X186657912Y-87727900D01*
X186654902Y-87728499D01*
X186654899Y-87728499D01*
X186619670Y-87735507D01*
X186587761Y-87741854D01*
X186582644Y-87745273D01*
X186582642Y-87745274D01*
X186523866Y-87784547D01*
X186508209Y-87795009D01*
X186455054Y-87874561D01*
X186441100Y-87944712D01*
X186441100Y-87989089D01*
X186422794Y-88033283D01*
X186378600Y-88051589D01*
X184851452Y-88051589D01*
X184846005Y-88051351D01*
X184843962Y-88051172D01*
X184805704Y-88047825D01*
X184800424Y-88049240D01*
X184800422Y-88049240D01*
X184766628Y-88058296D01*
X184761307Y-88059476D01*
X184721466Y-88066501D01*
X184716732Y-88069234D01*
X184716727Y-88069236D01*
X184715998Y-88069657D01*
X184700925Y-88075901D01*
X184700106Y-88076120D01*
X184700104Y-88076121D01*
X184694827Y-88077535D01*
X184690352Y-88080669D01*
X184690351Y-88080669D01*
X184661689Y-88100739D01*
X184657097Y-88103664D01*
X184622056Y-88123895D01*
X184618541Y-88128084D01*
X184596047Y-88154891D01*
X184592363Y-88158911D01*
X183987280Y-88763994D01*
X183943086Y-88782300D01*
X183712075Y-88782301D01*
X183681590Y-88782301D01*
X183678580Y-88782900D01*
X183678576Y-88782900D01*
X183621852Y-88794182D01*
X183621851Y-88794182D01*
X183615814Y-88795383D01*
X183541223Y-88845223D01*
X183538935Y-88848647D01*
X183495700Y-88866556D01*
X183451506Y-88848250D01*
X183433200Y-88804056D01*
X183433200Y-87625800D01*
X183451506Y-87581606D01*
X183495700Y-87563300D01*
X183764280Y-87563299D01*
X183777476Y-87563299D01*
X183796113Y-87566142D01*
X183809557Y-87570342D01*
X183814011Y-87570424D01*
X183814013Y-87570424D01*
X183881228Y-87571656D01*
X183952899Y-87572970D01*
X184091217Y-87535260D01*
X184213391Y-87460245D01*
X184244582Y-87425786D01*
X184306613Y-87357254D01*
X184309600Y-87353954D01*
X184372110Y-87224933D01*
X184395896Y-87083554D01*
X184396047Y-87071200D01*
X184375723Y-86929282D01*
X184316384Y-86798772D01*
X184222800Y-86690163D01*
X184102495Y-86612185D01*
X183990849Y-86578796D01*
X183953753Y-86548595D01*
X183948877Y-86501008D01*
X183969025Y-86470670D01*
X184449597Y-86074904D01*
X184705345Y-85864288D01*
X184745893Y-85850039D01*
X186605002Y-85874341D01*
G37*
%TD.AperFunction*%
%TA.AperFunction,Conductor*%
G36*
X186173176Y-79698106D02*
G01*
X186191482Y-79742300D01*
X186180949Y-79777023D01*
X186150254Y-79822961D01*
X186136300Y-79893112D01*
X186136300Y-80660488D01*
X186150254Y-80730639D01*
X186203409Y-80810191D01*
X186208526Y-80813610D01*
X186277842Y-80859926D01*
X186277844Y-80859927D01*
X186282961Y-80863346D01*
X186314870Y-80869693D01*
X186350099Y-80876701D01*
X186350102Y-80876701D01*
X186353112Y-80877300D01*
X187320488Y-80877300D01*
X187323498Y-80876701D01*
X187323501Y-80876701D01*
X187358730Y-80869693D01*
X187390639Y-80863346D01*
X187395756Y-80859927D01*
X187395758Y-80859926D01*
X187465074Y-80813610D01*
X187470191Y-80810191D01*
X187523346Y-80730639D01*
X187537300Y-80660488D01*
X187537300Y-79893112D01*
X187523346Y-79822961D01*
X187492651Y-79777023D01*
X187483319Y-79730107D01*
X187509895Y-79690333D01*
X187544618Y-79679800D01*
X190431900Y-79679800D01*
X190476094Y-79698106D01*
X190494400Y-79742300D01*
X190494400Y-81405298D01*
X190476094Y-81449492D01*
X190460907Y-81460659D01*
X190408534Y-81488100D01*
X190406529Y-81489604D01*
X190406527Y-81489605D01*
X190228030Y-81623478D01*
X189296371Y-82322222D01*
X189276000Y-82337500D01*
X189238500Y-82350000D01*
X187595651Y-82350000D01*
X187551457Y-82331694D01*
X187533151Y-82287500D01*
X187534352Y-82275306D01*
X187536701Y-82263498D01*
X187537300Y-82260488D01*
X187537300Y-81493112D01*
X187536603Y-81489605D01*
X187524547Y-81429000D01*
X187523346Y-81422961D01*
X187470191Y-81343409D01*
X187397151Y-81294605D01*
X187395758Y-81293674D01*
X187395756Y-81293673D01*
X187390639Y-81290254D01*
X187356448Y-81283453D01*
X187323501Y-81276899D01*
X187323498Y-81276899D01*
X187320488Y-81276300D01*
X186353112Y-81276300D01*
X186350102Y-81276899D01*
X186350099Y-81276899D01*
X186317152Y-81283453D01*
X186282961Y-81290254D01*
X186277844Y-81293673D01*
X186277842Y-81293674D01*
X186276449Y-81294605D01*
X186203409Y-81343409D01*
X186150254Y-81422961D01*
X186149053Y-81429000D01*
X186136998Y-81489605D01*
X186136300Y-81493112D01*
X186136300Y-81496182D01*
X186135999Y-81499239D01*
X186134522Y-81499093D01*
X186117994Y-81538994D01*
X186073800Y-81557300D01*
X186041800Y-81557300D01*
X185997606Y-81538994D01*
X185979300Y-81494800D01*
X185979300Y-81489112D01*
X185965346Y-81418961D01*
X185912191Y-81339409D01*
X185896534Y-81328947D01*
X185837758Y-81289674D01*
X185837756Y-81289673D01*
X185832639Y-81286254D01*
X185785609Y-81276899D01*
X185765501Y-81272899D01*
X185765498Y-81272899D01*
X185762488Y-81272300D01*
X184795112Y-81272300D01*
X184792102Y-81272899D01*
X184792099Y-81272899D01*
X184771991Y-81276899D01*
X184724961Y-81286254D01*
X184719844Y-81289673D01*
X184719842Y-81289674D01*
X184661066Y-81328947D01*
X184645409Y-81339409D01*
X184592254Y-81418961D01*
X184578300Y-81489112D01*
X184578300Y-82256488D01*
X184578898Y-82259496D01*
X184578899Y-82259503D01*
X184582043Y-82275308D01*
X184572710Y-82322224D01*
X184532936Y-82348799D01*
X184520744Y-82350000D01*
X183931487Y-82350000D01*
X183887293Y-82331694D01*
X183868987Y-82287500D01*
X183887293Y-82243306D01*
X183896764Y-82235533D01*
X183927836Y-82214771D01*
X183927838Y-82214769D01*
X183932952Y-82211352D01*
X183977267Y-82145031D01*
X183988900Y-82086548D01*
X183988900Y-81347052D01*
X183988301Y-81344039D01*
X183978468Y-81294605D01*
X183978467Y-81294603D01*
X183977267Y-81288569D01*
X183969470Y-81276899D01*
X183936369Y-81227362D01*
X183932952Y-81222248D01*
X183916080Y-81210974D01*
X183871747Y-81181351D01*
X183871745Y-81181350D01*
X183866631Y-81177933D01*
X183860597Y-81176733D01*
X183860595Y-81176732D01*
X183811161Y-81166899D01*
X183811158Y-81166899D01*
X183808148Y-81166300D01*
X183495700Y-81166300D01*
X183451506Y-81147994D01*
X183433200Y-81103800D01*
X183433200Y-79742300D01*
X183451506Y-79698106D01*
X183495700Y-79679800D01*
X186128982Y-79679800D01*
X186173176Y-79698106D01*
G37*
%TD.AperFunction*%
%TD*%
%TA.AperFunction,Conductor*%
%TO.N,/NMOS_OUT*%
G36*
X198023527Y-79698106D02*
G01*
X198041833Y-79742288D01*
X198043471Y-89440954D01*
X198043796Y-91365168D01*
X198041817Y-91380780D01*
X198039326Y-91390440D01*
X198041530Y-91398366D01*
X198041582Y-91403926D01*
X198042764Y-91414266D01*
X198029455Y-91719625D01*
X198028817Y-91726215D01*
X197980215Y-92048808D01*
X197978883Y-92055293D01*
X197896433Y-92370924D01*
X197894423Y-92377232D01*
X197779046Y-92682376D01*
X197776380Y-92688436D01*
X197629370Y-92979671D01*
X197626077Y-92985415D01*
X197449092Y-93259452D01*
X197445211Y-93264815D01*
X197240228Y-93518600D01*
X197235801Y-93523523D01*
X197005123Y-93754201D01*
X197000200Y-93758628D01*
X196746415Y-93963611D01*
X196741052Y-93967492D01*
X196467015Y-94144477D01*
X196461271Y-94147770D01*
X196170036Y-94294780D01*
X196163976Y-94297446D01*
X195858832Y-94412823D01*
X195852524Y-94414833D01*
X195536893Y-94497283D01*
X195530408Y-94498615D01*
X195207815Y-94547217D01*
X195201225Y-94547855D01*
X194895866Y-94561164D01*
X194885526Y-94559982D01*
X194879966Y-94559930D01*
X194872040Y-94557726D01*
X194864075Y-94559780D01*
X194864073Y-94559780D01*
X194862368Y-94560220D01*
X194846762Y-94562200D01*
X191217300Y-94562200D01*
X191173106Y-94543894D01*
X191154800Y-94499700D01*
X191154800Y-89482847D01*
X191170919Y-89440954D01*
X191231723Y-89373635D01*
X192577200Y-87884000D01*
X192577200Y-85849296D01*
X192587694Y-85817066D01*
X192586737Y-85816521D01*
X192588469Y-85813477D01*
X192590538Y-85810636D01*
X192609388Y-85766672D01*
X192625557Y-85690328D01*
X192661555Y-82774493D01*
X192674804Y-81701341D01*
X192674223Y-81698274D01*
X192674223Y-81698269D01*
X192667434Y-81662409D01*
X192660064Y-81623478D01*
X192655821Y-81613053D01*
X192642773Y-81580992D01*
X192642770Y-81580986D01*
X192641763Y-81578512D01*
X192605647Y-81520637D01*
X192600590Y-81517049D01*
X192596332Y-81512531D01*
X192598247Y-81510726D01*
X192578082Y-81478627D01*
X192577200Y-81468164D01*
X192577200Y-79742300D01*
X192595506Y-79698106D01*
X192639700Y-79679800D01*
X197979333Y-79679800D01*
X198023527Y-79698106D01*
G37*
%TD.AperFunction*%
%TD*%
M02*
