%TF.GenerationSoftware,KiCad,Pcbnew,(6.0.1)*%
%TF.CreationDate,2022-07-18T10:30:43+08:00*%
%TF.ProjectId,HighSideSwitch,48696768-5369-4646-9553-77697463682e,rev?*%
%TF.SameCoordinates,Original*%
%TF.FileFunction,Soldermask,Bot*%
%TF.FilePolarity,Negative*%
%FSLAX46Y46*%
G04 Gerber Fmt 4.6, Leading zero omitted, Abs format (unit mm)*
G04 Created by KiCad (PCBNEW (6.0.1)) date 2022-07-18 10:30:43*
%MOMM*%
%LPD*%
G01*
G04 APERTURE LIST*
G04 Aperture macros list*
%AMRoundRect*
0 Rectangle with rounded corners*
0 $1 Rounding radius*
0 $2 $3 $4 $5 $6 $7 $8 $9 X,Y pos of 4 corners*
0 Add a 4 corners polygon primitive as box body*
4,1,4,$2,$3,$4,$5,$6,$7,$8,$9,$2,$3,0*
0 Add four circle primitives for the rounded corners*
1,1,$1+$1,$2,$3*
1,1,$1+$1,$4,$5*
1,1,$1+$1,$6,$7*
1,1,$1+$1,$8,$9*
0 Add four rect primitives between the rounded corners*
20,1,$1+$1,$2,$3,$4,$5,0*
20,1,$1+$1,$4,$5,$6,$7,0*
20,1,$1+$1,$6,$7,$8,$9,0*
20,1,$1+$1,$8,$9,$2,$3,0*%
G04 Aperture macros list end*
%ADD10C,2.000000*%
%ADD11C,0.100000*%
%ADD12C,6.400000*%
%ADD13C,0.800000*%
%ADD14RoundRect,0.090000X-0.460000X-0.360000X0.460000X-0.360000X0.460000X0.360000X-0.460000X0.360000X0*%
%ADD15RoundRect,0.065000X-0.135000X0.310000X-0.135000X-0.310000X0.135000X-0.310000X0.135000X0.310000X0*%
%ADD16RoundRect,0.126000X2.324000X1.824000X-2.324000X1.824000X-2.324000X-1.824000X2.324000X-1.824000X0*%
%ADD17RoundRect,0.050000X-1.200000X-0.370000X1.200000X-0.370000X1.200000X0.370000X-1.200000X0.370000X0*%
%ADD18RoundRect,0.080000X-0.270000X0.320000X-0.270000X-0.320000X0.270000X-0.320000X0.270000X0.320000X0*%
%ADD19RoundRect,0.090000X0.360000X-0.460000X0.360000X0.460000X-0.360000X0.460000X-0.360000X-0.460000X0*%
%ADD20RoundRect,0.090000X-0.360000X0.460000X-0.360000X-0.460000X0.360000X-0.460000X0.360000X0.460000X0*%
%ADD21RoundRect,0.077500X-0.247500X0.322500X-0.247500X-0.322500X0.247500X-0.322500X0.247500X0.322500X0*%
G04 APERTURE END LIST*
D10*
X195117200Y-85725000D02*
X195117200Y-90551000D01*
X179521600Y-84912200D02*
X179521600Y-89738200D01*
D11*
%TO.C,D1*%
X190759200Y-83016000D02*
X191959200Y-83016000D01*
X191959200Y-83016000D02*
X191959200Y-81816000D01*
X191959200Y-81816000D02*
X190759200Y-81816000D01*
X190759200Y-81816000D02*
X190759200Y-83016000D01*
G36*
X190759200Y-83016000D02*
G01*
X191959200Y-83016000D01*
X191959200Y-81816000D01*
X190759200Y-81816000D01*
X190759200Y-83016000D01*
G37*
X191959200Y-85316000D02*
X190759200Y-85316000D01*
X190759200Y-85316000D02*
X190759200Y-84116000D01*
X190759200Y-84116000D02*
X191959200Y-84116000D01*
X191959200Y-84116000D02*
X191959200Y-85316000D01*
G36*
X191959200Y-85316000D02*
G01*
X190759200Y-85316000D01*
X190759200Y-84116000D01*
X191959200Y-84116000D01*
X191959200Y-85316000D01*
G37*
%TD*%
D12*
%TO.C,H2*%
X194927344Y-91338256D03*
D13*
X194927344Y-88938256D03*
X194927344Y-93738256D03*
X193230288Y-89641200D03*
X193230288Y-93035312D03*
X196624400Y-89641200D03*
X192527344Y-91338256D03*
X196624400Y-93035312D03*
X197327344Y-91338256D03*
%TD*%
%TO.C,H1*%
X181224400Y-93035312D03*
X181224400Y-89641200D03*
X179527344Y-93738256D03*
X179527344Y-88938256D03*
X177830288Y-89641200D03*
X177830288Y-93035312D03*
X181927344Y-91338256D03*
X177127344Y-91338256D03*
D12*
X179527344Y-91338256D03*
%TD*%
D14*
%TO.C,C4*%
X189378800Y-85392800D03*
X189378800Y-83792800D03*
%TD*%
D15*
%TO.C,U1*%
X184465200Y-87717600D03*
X184965200Y-87717600D03*
X185465200Y-87717600D03*
X185965200Y-87717600D03*
X186465200Y-87717600D03*
X186465200Y-92317600D03*
X185965200Y-92317600D03*
X185465200Y-92317600D03*
X184965200Y-92317600D03*
X184465200Y-92317600D03*
%TD*%
D14*
%TO.C,R2*%
X191918800Y-88232800D03*
X191918800Y-86632800D03*
%TD*%
D16*
%TO.C,D1*%
X195359200Y-83566000D03*
%TD*%
D17*
%TO.C,J1*%
X188741600Y-80746200D03*
X184841600Y-80746200D03*
X188741600Y-82016200D03*
X184841600Y-82016200D03*
%TD*%
D18*
%TO.C,Q3*%
X187836000Y-84089200D03*
X187836000Y-85989200D03*
X185736000Y-85039200D03*
%TD*%
D19*
%TO.C,C3*%
X189290400Y-93573600D03*
X187690400Y-93573600D03*
%TD*%
D20*
%TO.C,R4*%
X182888800Y-93842800D03*
X184488800Y-93842800D03*
%TD*%
D21*
%TO.C,U2*%
X190377600Y-90759600D03*
X189427600Y-90759600D03*
X188477600Y-90759600D03*
X188477600Y-88259600D03*
X189427600Y-88259600D03*
X190377600Y-88259600D03*
%TD*%
M02*
