%TF.GenerationSoftware,KiCad,Pcbnew,(6.0.1)*%
%TF.CreationDate,2022-07-18T16:03:54+08:00*%
%TF.ProjectId,HighSideSwitch,48696768-5369-4646-9553-77697463682e,rev?*%
%TF.SameCoordinates,Original*%
%TF.FileFunction,Paste,Top*%
%TF.FilePolarity,Positive*%
%FSLAX46Y46*%
G04 Gerber Fmt 4.6, Leading zero omitted, Abs format (unit mm)*
G04 Created by KiCad (PCBNEW (6.0.1)) date 2022-07-18 16:03:54*
%MOMM*%
%LPD*%
G01*
G04 APERTURE LIST*
G04 Aperture macros list*
%AMRoundRect*
0 Rectangle with rounded corners*
0 $1 Rounding radius*
0 $2 $3 $4 $5 $6 $7 $8 $9 X,Y pos of 4 corners*
0 Add a 4 corners polygon primitive as box body*
4,1,4,$2,$3,$4,$5,$6,$7,$8,$9,$2,$3,0*
0 Add four circle primitives for the rounded corners*
1,1,$1+$1,$2,$3*
1,1,$1+$1,$4,$5*
1,1,$1+$1,$6,$7*
1,1,$1+$1,$8,$9*
0 Add four rect primitives between the rounded corners*
20,1,$1+$1,$2,$3,$4,$5,0*
20,1,$1+$1,$4,$5,$6,$7,0*
20,1,$1+$1,$6,$7,$8,$9,0*
20,1,$1+$1,$8,$9,$2,$3,0*%
G04 Aperture macros list end*
%ADD10RoundRect,0.000000X-0.400000X-0.320000X0.400000X-0.320000X0.400000X0.320000X-0.400000X0.320000X0*%
%ADD11RoundRect,0.000000X0.200000X-0.240000X0.200000X0.240000X-0.200000X0.240000X-0.200000X-0.240000X0*%
%ADD12RoundRect,0.000000X0.340000X-0.425000X0.340000X0.425000X-0.340000X0.425000X-0.340000X-0.425000X0*%
%ADD13RoundRect,0.000000X-0.320000X0.400000X-0.320000X-0.400000X0.320000X-0.400000X0.320000X0.400000X0*%
%ADD14R,0.850000X0.600000*%
%ADD15RoundRect,0.000000X0.400000X0.320000X-0.400000X0.320000X-0.400000X-0.320000X0.400000X-0.320000X0*%
%ADD16RoundRect,0.000000X-0.200000X0.240000X-0.200000X-0.240000X0.200000X-0.240000X0.200000X0.240000X0*%
G04 APERTURE END LIST*
%TO.C,Q2*%
G36*
X177488400Y-84441800D02*
G01*
X178088400Y-84441800D01*
X178088400Y-84041800D01*
X177488400Y-84041800D01*
X177488400Y-84441800D01*
G37*
G36*
X178288400Y-83466800D02*
G01*
X179788400Y-83466800D01*
X179788400Y-82666800D01*
X178288400Y-82666800D01*
X178288400Y-83466800D01*
G37*
G36*
X182888400Y-83241800D02*
G01*
X183738400Y-83241800D01*
X183738400Y-82666800D01*
X182888400Y-82666800D01*
X182888400Y-83241800D01*
G37*
G36*
X178288400Y-82366800D02*
G01*
X179788400Y-82366800D01*
X179788400Y-81566800D01*
X178288400Y-81566800D01*
X178288400Y-82366800D01*
G37*
G36*
X182888400Y-84541800D02*
G01*
X183738400Y-84541800D01*
X183738400Y-83941800D01*
X182888400Y-83941800D01*
X182888400Y-84541800D01*
G37*
G36*
X177488400Y-85766800D02*
G01*
X178088400Y-85766800D01*
X178088400Y-85266800D01*
X177488400Y-85266800D01*
X177488400Y-85766800D01*
G37*
G36*
X178288400Y-84566800D02*
G01*
X179788400Y-84566800D01*
X179788400Y-83766800D01*
X178288400Y-83766800D01*
X178288400Y-84566800D01*
G37*
G36*
X180088400Y-85666800D02*
G01*
X181588400Y-85666800D01*
X181588400Y-84866800D01*
X180088400Y-84866800D01*
X180088400Y-85666800D01*
G37*
G36*
X177488400Y-83191800D02*
G01*
X178088400Y-83191800D01*
X178088400Y-82841800D01*
X177488400Y-82841800D01*
X177488400Y-83191800D01*
G37*
G36*
X177488400Y-82016800D02*
G01*
X178088400Y-82016800D01*
X178088400Y-81466800D01*
X177488400Y-81466800D01*
X177488400Y-82016800D01*
G37*
G36*
X182888400Y-85816800D02*
G01*
X183738400Y-85816800D01*
X183738400Y-85241800D01*
X182888400Y-85241800D01*
X182888400Y-85816800D01*
G37*
G36*
X180088400Y-82366800D02*
G01*
X181588400Y-82366800D01*
X181588400Y-81566800D01*
X180088400Y-81566800D01*
X180088400Y-82366800D01*
G37*
G36*
X180088400Y-84566800D02*
G01*
X181588400Y-84566800D01*
X181588400Y-83766800D01*
X180088400Y-83766800D01*
X180088400Y-84566800D01*
G37*
G36*
X178288400Y-85666800D02*
G01*
X179788400Y-85666800D01*
X179788400Y-84866800D01*
X178288400Y-84866800D01*
X178288400Y-85666800D01*
G37*
G36*
X180088400Y-83466800D02*
G01*
X181588400Y-83466800D01*
X181588400Y-82666800D01*
X180088400Y-82666800D01*
X180088400Y-83466800D01*
G37*
%TO.C,Q1*%
G36*
X196518800Y-85702800D02*
G01*
X195018800Y-85702800D01*
X195018800Y-86502800D01*
X196518800Y-86502800D01*
X196518800Y-85702800D01*
G37*
G36*
X194718800Y-83502800D02*
G01*
X193218800Y-83502800D01*
X193218800Y-84302800D01*
X194718800Y-84302800D01*
X194718800Y-83502800D01*
G37*
G36*
X191918800Y-84827800D02*
G01*
X191068800Y-84827800D01*
X191068800Y-85402800D01*
X191918800Y-85402800D01*
X191918800Y-84827800D01*
G37*
G36*
X197318800Y-82302800D02*
G01*
X196718800Y-82302800D01*
X196718800Y-82802800D01*
X197318800Y-82802800D01*
X197318800Y-82302800D01*
G37*
G36*
X196518800Y-84602800D02*
G01*
X195018800Y-84602800D01*
X195018800Y-85402800D01*
X196518800Y-85402800D01*
X196518800Y-84602800D01*
G37*
G36*
X194718800Y-82402800D02*
G01*
X193218800Y-82402800D01*
X193218800Y-83202800D01*
X194718800Y-83202800D01*
X194718800Y-82402800D01*
G37*
G36*
X196518800Y-82402800D02*
G01*
X195018800Y-82402800D01*
X195018800Y-83202800D01*
X196518800Y-83202800D01*
X196518800Y-82402800D01*
G37*
G36*
X191918800Y-82252800D02*
G01*
X191068800Y-82252800D01*
X191068800Y-82827800D01*
X191918800Y-82827800D01*
X191918800Y-82252800D01*
G37*
G36*
X197318800Y-83627800D02*
G01*
X196718800Y-83627800D01*
X196718800Y-84027800D01*
X197318800Y-84027800D01*
X197318800Y-83627800D01*
G37*
G36*
X197318800Y-86052800D02*
G01*
X196718800Y-86052800D01*
X196718800Y-86602800D01*
X197318800Y-86602800D01*
X197318800Y-86052800D01*
G37*
G36*
X194718800Y-85702800D02*
G01*
X193218800Y-85702800D01*
X193218800Y-86502800D01*
X194718800Y-86502800D01*
X194718800Y-85702800D01*
G37*
G36*
X194718800Y-84602800D02*
G01*
X193218800Y-84602800D01*
X193218800Y-85402800D01*
X194718800Y-85402800D01*
X194718800Y-84602800D01*
G37*
G36*
X197318800Y-84877800D02*
G01*
X196718800Y-84877800D01*
X196718800Y-85227800D01*
X197318800Y-85227800D01*
X197318800Y-84877800D01*
G37*
G36*
X196518800Y-83502800D02*
G01*
X195018800Y-83502800D01*
X195018800Y-84302800D01*
X196518800Y-84302800D01*
X196518800Y-83502800D01*
G37*
G36*
X191918800Y-83527800D02*
G01*
X191068800Y-83527800D01*
X191068800Y-84127800D01*
X191918800Y-84127800D01*
X191918800Y-83527800D01*
G37*
%TD*%
D10*
%TO.C,R9*%
X186836800Y-80276800D03*
X186836800Y-81876800D03*
%TD*%
D11*
%TO.C,R1*%
X182548800Y-87062800D03*
X183548800Y-87062800D03*
%TD*%
%TO.C,C1*%
X182548800Y-88172800D03*
X183548800Y-88172800D03*
%TD*%
D12*
%TO.C,D2*%
X188358800Y-93612800D03*
X189958800Y-93612800D03*
%TD*%
D13*
%TO.C,R5*%
X186738800Y-90452800D03*
X185138800Y-90452800D03*
%TD*%
D14*
%TO.C,Q2*%
X183313400Y-81716800D03*
%TD*%
D13*
%TO.C,R6*%
X186738800Y-92282800D03*
X185138800Y-92282800D03*
%TD*%
D15*
%TO.C,R11*%
X189986400Y-92189200D03*
X189986400Y-90589200D03*
%TD*%
D16*
%TO.C,R7*%
X183928800Y-89282800D03*
X182928800Y-89282800D03*
%TD*%
D13*
%TO.C,R3*%
X184508800Y-93842800D03*
X182908800Y-93842800D03*
%TD*%
D14*
%TO.C,Q1*%
X191493800Y-86352800D03*
%TD*%
D15*
%TO.C,R8*%
X187141600Y-88328400D03*
X187141600Y-86728400D03*
%TD*%
D10*
%TO.C,R10*%
X185278800Y-80272800D03*
X185278800Y-81872800D03*
%TD*%
M02*
